<svg xmlns="http://www.w3.org/2000/svg" width="1200" height="675" viewBox="0 0 1200 675">
  <defs>
    <linearGradient id="bg" x1="0" x2="1" y1="0" y2="1">
      <stop offset="0%" stop-color="#2d2d6d" />
      <stop offset="100%" stop-color="#6f5de7" />
    </linearGradient>
    <linearGradient id="panel" x1="0" x2="1" y1="0" y2="1">
      <stop offset="0%" stop-color="#ffffffaa" />
      <stop offset="100%" stop-color="#ffffff66" />
    </linearGradient>
  </defs>
  <rect width="1200" height="675" rx="40" ry="40" fill="url(#bg)" />
  <rect x="70" y="70" width="1060" height="535" rx="32" ry="32" fill="url(#panel)" stroke="#ffffff55" stroke-width="3" />
  <rect x="100" y="110" width="1000" height="80" rx="20" ry="20" fill="#ffffff" opacity="0.95" />
  <text x="120" y="160" font-size="40" font-family="Inter, sans-serif" fill="#2d2d6d" font-weight="700">Stellar Expert Contract Explorer</text>
  <rect x="120" y="210" width="180" height="20" rx="10" fill="#e5e7ff" />
  <rect x="320" y="210" width="520" height="20" rx="10" fill="#e5e7ff" />
  <rect x="120" y="250" width="840" height="270" rx="24" fill="#f8f9ff" />
  <rect x="140" y="290" width="440" height="24" rx="12" fill="#dfe2ff" />
  <rect x="620" y="290" width="260" height="24" rx="12" fill="#dfe2ff" />
  <rect x="140" y="340" width="160" height="24" rx="12" fill="#dfe2ff" />
  <rect x="140" y="390" width="760" height="24" rx="12" fill="#dfe2ff" />
  <rect x="140" y="440" width="460" height="24" rx="12" fill="#dfe2ff" />
  <rect x="140" y="490" width="520" height="24" rx="12" fill="#dfe2ff" />
  <rect x="680" y="530" width="240" height="24" rx="12" fill="#dfe2ff" />
  <text x="140" y="520" font-size="28" font-family="Inter, sans-serif" fill="#2d2d6d">contract/CD6X4WLOSADDVVFDANFBQW3Y4YNGCLISKASB5H5SL4HXACJMKZGGCC3E</text>
</svg>
